# xmcd
#
# Track frame offsets: 
#        183
#        16630
#        40885
#        59853
#        75228
#        93988
#        112383
#        132035
#        151643
#        171190
#
# Disc length: 2510 seconds
#
# Revision: 5
# Processed by: cddbd v1.5.2PL0 Copyright (c) Steve Scherf et al.
# Submitted via: ExactAudioCopy v1.0b3
#
DISCID=7309cc0a
DTITLE=譚詠麟 - 擁抱
DYEAR=1988
DGENRE=Pop
TTITLE0=午夜皇后
TTITLE1=變奏
TTITLE2=千金一刻
TTITLE3=同根生
TTITLE4=領航燈
TTITLE5=水中花
TTITLE6=都市獵人
TTITLE7=從後趕上
TTITLE8=擁抱
TTITLE9=80歲後
EXTD=
EXTT0=
EXTT1=
EXTT2=
EXTT3=
EXTT4=
EXTT5=
EXTT6=
EXTT7=
EXTT8=
EXTT9=
PLAYORDER=
